<?xml version="1.0" standalone="no"?>
<!DOCTYPE svg PUBLIC "-//W3C//DTD SVG 20010904//EN"
 "http://www.w3.org/TR/2001/REC-SVG-20010904/DTD/svg10.dtd">
<svg version="1.0" xmlns="http://www.w3.org/2000/svg"
 width="260.000000pt" height="260.000000pt" viewBox="0 0 260.000000 260.000000"
 preserveAspectRatio="xMidYMid meet">
<metadata>
Created by potrace 1.14, written by Peter Selinger 2001-2017
</metadata>
<g transform="translate(0.000000,260.000000) scale(0.100000,-0.100000)"
fill="#000000" stroke="none">
<path d="M1200 2233 c-67 -11 -165 -35 -212 -53 l-53 -20 -37 -97 c-83 -223
-264 -747 -339 -985 -165 -523 -171 -590 -58 -674 66 -48 247 -61 376 -25 37
10 44 16 52 49 6 20 26 102 46 182 20 80 41 148 47 151 6 4 129 7 273 7 l263
0 36 -136 c39 -146 60 -189 110 -227 44 -33 105 -45 221 -41 109 4 196 30 234
70 l21 22 -20 70 c-11 38 -22 78 -24 89 -2 11 -43 157 -91 325 -48 168 -90
319 -95 335 -9 35 -66 229 -116 395 -19 63 -58 184 -85 268 -44 133 -56 159
-90 193 -65 65 -168 97 -329 103 -58 2 -116 2 -130 -1z m174 -693 c43 -153 75
-279 90 -341 l6 -27 -185 1 c-177 1 -185 2 -179 20 3 10 14 47 24 82 32 111
153 470 164 483 13 17 21 -6 80 -218z"/>
</g>
</svg>
